<?xml version="1.0" encoding="utf-8"?>
<!-- Generator: Adobe Illustrator 16.0.0, SVG Export Plug-In . SVG Version: 6.00 Build 0)  -->
<!DOCTYPE svg PUBLIC "-//W3C//DTD SVG 1.1//EN" "http://www.w3.org/Graphics/SVG/1.1/DTD/svg11.dtd">
<svg version="1.1" id="Layer_1" xmlns="http://www.w3.org/2000/svg" xmlns:xlink="http://www.w3.org/1999/xlink" x="0px" y="0px"
	 width="404.363px" height="207.442px" viewBox="0 0 404.363 207.442" enable-background="new 0 0 404.363 207.442"
	 xml:space="preserve">
<polygon fill="#231F20" points="102.604,166.084 190.023,166.084 190.023,0.233 23.763,0.233 23.763,166.084 68.035,166.084 
	68.035,183.807 "/>
<polyline fill="#ECECDD" points="23.926,166.142 67.926,166.142 44.021,190.013 0,190.013 "/>
<polygon fill="#D3D2C1" points="-0.211,24.641 -0.211,190.027 23.662,166.102 23.662,0.548 "/>
<polyline fill="#ECECDD" points="166.1,189.931 78.518,189.931 102.61,166.059 190.03,166.059 "/>
<path fill="#D3D2C1" d="M43.89,207.925l0.271-0.218v-0.054L43.89,207.925z M44.076,190.013l0.084,17.641l23.876-23.875v-17.716
	L44.076,190.013z"/>
<polyline fill="#F5F4EE" points="78.775,189.834 44.258,207.442 68.037,183.836 102.389,166.23 "/>
<rect x="114.398" y="19.522" fill="#2AABE2" width="10.559" height="10.56"/>
<rect x="102.401" y="19.522" fill="#9E2063" width="10.558" height="10.56"/>
<rect x="114.398" y="31.518" fill="#652F8F" width="10.559" height="10.56"/>
<rect x="102.401" y="31.518" fill="#00A79C" width="10.558" height="10.56"/>
<rect x="90.402" y="31.518" fill="#3BB34A" width="10.559" height="10.56"/>
<rect x="78.407" y="31.518" fill="#D7DE27" width="10.558" height="10.56"/>
<rect x="65.928" y="31.518" fill="#BD6A28" width="10.56" height="10.56"/>
<rect x="114.398" y="43.517" fill="#FAAF42" width="10.559" height="10.558"/>
<rect x="102.401" y="43.517" fill="#F15B2A" width="10.558" height="10.558"/>
<rect x="90.402" y="43.517" fill="#EB2227" width="10.559" height="10.558"/>
<rect x="114.398" y="55.516" fill="#2AABE2" width="10.559" height="10.56"/>
<rect x="102.401" y="55.516" fill="#9E2063" width="10.558" height="10.56"/>
<rect x="90.402" y="55.516" fill="#F15B2A" width="10.559" height="10.56"/>
<rect x="114.398" y="67.511" fill="#D7DE27" width="10.559" height="10.559"/>
<rect x="102.401" y="67.511" fill="#BD6A28" width="10.558" height="10.559"/>
<rect x="90.402" y="67.511" fill="#D98DBB" width="10.559" height="10.559"/>
<rect x="114.398" y="79.51" fill="#652F8F" width="10.559" height="10.557"/>
<rect x="102.401" y="79.51" fill="#00A79C" width="10.558" height="10.557"/>
<rect x="90.402" y="79.51" fill="#90A13A" width="10.559" height="10.557"/>
<rect x="114.398" y="91.506" fill="#77CBCC" width="10.559" height="10.558"/>
<rect x="102.401" y="91.506" fill="#9E2063" width="10.558" height="10.558"/>
<rect x="90.402" y="91.506" fill="#F37F97" width="10.559" height="10.558"/>
<rect x="114.398" y="103.503" fill="#F15A29" width="10.559" height="10.558"/>
<rect x="102.401" y="103.503" fill="#F15B2A" width="10.558" height="10.558"/>
<rect x="90.402" y="103.503" fill="#EB2227" width="10.559" height="10.558"/>
<rect x="114.398" y="115.502" fill="#FAAF42" width="10.559" height="10.558"/>
<rect x="126.397" y="115.502" fill="#00A79C" width="10.559" height="10.558"/>
<rect x="102.401" y="115.502" fill="#B64A9B" width="10.558" height="10.558"/>
<rect x="90.402" y="115.502" fill="#90A13A" width="10.559" height="10.558"/>
<rect x="78.407" y="115.502" fill="#2AABE2" width="10.558" height="10.558"/>
<rect x="114.398" y="127.499" fill="#EB2227" width="10.559" height="10.558"/>
<rect x="126.397" y="127.499" fill="#BD6A28" width="10.559" height="10.558"/>
<rect x="138.396" y="127.499" fill="#D7DE27" width="10.556" height="10.558"/>
<rect x="102.401" y="127.499" fill="#F15B2A" width="10.558" height="10.558"/>
<rect x="90.402" y="127.499" fill="#9E2063" width="10.559" height="10.558"/>
<rect x="78.407" y="127.499" fill="#F15B2A" width="10.558" height="10.558"/>
<rect x="66.408" y="127.499" fill="#D98DBB" width="10.559" height="10.558"/>
<rect x="78.407" y="43.517" fill="#A954A0" width="10.558" height="10.558"/>
<rect x="65.928" y="43.517" fill="#00A79C" width="10.56" height="10.558"/>
<g>
	<defs>
		<rect id="SVGID_1_" x="65.928" y="19.522" width="83.023" height="118.534"/>
	</defs>
	<clipPath id="SVGID_2_">
		<use xlink:href="#SVGID_1_"  overflow="visible"/>
	</clipPath>
	<path clip-path="url(#SVGID_2_)" fill-rule="evenodd" clip-rule="evenodd" fill="#FFFFFF" d="M139.538,74.429
		c-0.041,0.045-0.099,0.074-0.171,0.086C139.328,74.39,139.46,74.438,139.538,74.429"/>
</g>
<g>
	<path fill="#231F20" d="M402.67,84.277c0-0.206-0.05-0.389-0.152-0.556c-0.104-0.165-0.285-0.311-0.54-0.431
		c-0.259-0.122-0.622-0.21-1.092-0.262c-0.473-0.049-1.058-0.076-1.759-0.076c-0.737,0-1.343,0.027-1.815,0.076
		c-0.475,0.051-0.854,0.14-1.138,0.262c-0.293,0.12-0.494,0.266-0.618,0.431c-0.123,0.167-0.185,0.35-0.185,0.556v18.696
		c0,1.419,0.016,2.91,0.044,4.472c0.033,1.562,0.079,3.056,0.141,4.494h-0.032c-0.367-0.817-0.75-1.644-1.142-2.466
		c-0.388-0.817-0.791-1.655-1.195-2.508c-0.415-0.853-0.84-1.706-1.28-2.558c-0.44-0.851-0.89-1.72-1.342-2.604l-7.762-14.569
		c-0.392-0.804-0.771-1.474-1.141-2.017c-0.371-0.545-0.767-0.97-1.187-1.281c-0.42-0.307-0.897-0.527-1.433-0.663
		c-0.532-0.132-1.191-0.198-1.97-0.198h-4.345c-0.82,0-1.517,0.241-2.076,0.725c-0.565,0.48-0.85,1.205-0.85,2.172v35.825
		c0,0.205,0.05,0.391,0.152,0.558c0.103,0.165,0.288,0.299,0.557,0.41c0.269,0.115,0.635,0.202,1.108,0.262
		c0.469,0.065,1.066,0.092,1.788,0.092c0.736,0,1.342-0.026,1.815-0.092c0.47-0.06,0.846-0.146,1.125-0.262
		c0.28-0.111,0.474-0.245,0.586-0.41c0.114-0.167,0.168-0.353,0.168-0.558v-20.855c0-1.563-0.021-3.077-0.062-4.543
		c-0.041-1.469-0.103-2.941-0.186-4.422h0.062c0.47,1.213,1.01,2.461,1.603,3.743c0.593,1.283,1.183,2.481,1.754,3.59l9.924,18.639
		c0.51,1.023,0.972,1.86,1.389,2.511c0.407,0.648,0.836,1.159,1.272,1.54c0.44,0.382,0.927,0.641,1.445,0.785
		c0.526,0.142,1.15,0.216,1.87,0.216h3.447c0.392,0,0.774-0.058,1.153-0.171c0.38-0.113,0.709-0.292,0.984-0.537
		c0.28-0.247,0.503-0.559,0.664-0.925c0.164-0.371,0.247-0.791,0.247-1.265V84.277z M353.982,108.382
		c-0.335,1.695-0.918,3.179-1.739,4.451c-0.82,1.272-1.901,2.28-3.235,3.02c-1.331,0.741-2.995,1.11-4.99,1.11
		c-1.989,0-3.645-0.323-4.959-0.971c-1.313-0.646-2.359-1.587-3.143-2.819c-0.78-1.233-1.334-2.719-1.661-4.45
		c-0.333-1.737-0.497-3.693-0.497-5.868c0-1.87,0.174-3.644,0.512-5.316c0.339-1.674,0.917-3.136,1.741-4.389
		c0.819-1.254,1.898-2.253,3.232-3.007c1.335-0.746,3-1.122,4.994-1.122c1.969,0,3.61,0.333,4.927,1.003
		c1.313,0.667,2.367,1.613,3.156,2.832c0.793,1.224,1.354,2.692,1.679,4.405c0.332,1.716,0.495,3.623,0.495,5.713
		C354.494,104.886,354.324,106.689,353.982,108.382 M361.808,93.563c-0.791-2.535-1.96-4.634-3.509-6.3
		c-1.558-1.664-3.485-2.893-5.794-3.694s-4.974-1.201-7.993-1.201c-3.164,0-5.941,0.481-8.333,1.446
		c-2.393,0.966-4.399,2.354-6.021,4.158c-1.624,1.808-2.843,4-3.668,6.578c-0.822,2.576-1.235,5.479-1.235,8.702
		c0,3.514,0.388,6.552,1.158,9.12c0.771,2.566,1.928,4.68,3.466,6.345c1.544,1.665,3.467,2.902,5.773,3.716
		c2.312,0.81,5.02,1.215,8.118,1.215c3.144,0,5.911-0.478,8.306-1.435c2.39-0.954,4.398-2.34,6.021-4.159
		c1.618-1.816,2.842-4.028,3.667-6.638c0.818-2.607,1.23-5.566,1.23-8.873C362.995,99.096,362.6,96.099,361.808,93.563
		 M318.451,84.185c0-0.205-0.065-0.392-0.199-0.554c-0.135-0.165-0.356-0.296-0.664-0.402c-0.307-0.101-0.717-0.183-1.229-0.243
		c-0.514-0.064-1.174-0.095-1.975-0.095c-0.781,0-1.428,0.031-1.942,0.095c-0.511,0.06-0.927,0.142-1.243,0.243
		c-0.322,0.105-0.545,0.237-0.68,0.402c-0.135,0.162-0.2,0.35-0.2,0.554v37.644c0,0.206,0.065,0.392,0.2,0.555
		c0.135,0.165,0.354,0.298,0.662,0.401c0.306,0.101,0.724,0.184,1.247,0.243c0.524,0.065,1.175,0.092,1.956,0.092
		c0.801,0,1.461-0.026,1.975-0.092c0.513-0.06,0.923-0.143,1.229-0.243c0.308-0.104,0.529-0.236,0.664-0.401
		c0.134-0.163,0.199-0.349,0.199-0.555V84.185z M301.908,86.942c-0.124-0.523-0.325-0.931-0.601-1.215
		c-0.276-0.292-0.767-0.628-1.465-1.02c-0.698-0.389-1.575-0.755-2.632-1.093c-1.061-0.34-2.295-0.626-3.712-0.861
		c-1.419-0.236-2.988-0.356-4.714-0.356c-3.143,0-5.993,0.486-8.549,1.45c-2.557,0.963-4.739,2.356-6.548,4.172
		c-1.804,1.821-3.2,4.026-4.188,6.625c-0.986,2.593-1.477,5.528-1.477,8.794c0,3.161,0.462,5.989,1.385,8.487
		c0.924,2.494,2.257,4.607,4.003,6.346c1.747,1.733,3.876,3.059,6.394,3.971c2.517,0.917,5.363,1.371,8.549,1.371
		c1.086,0,2.173-0.051,3.25-0.151c1.077-0.104,2.146-0.26,3.202-0.462c1.058-0.208,2.083-0.452,3.065-0.741
		c0.985-0.286,1.814-0.566,2.481-0.83c0.666-0.266,1.106-0.633,1.324-1.098c0.215-0.459,0.323-0.999,0.323-1.615v-15.862
		c0-0.412-0.051-0.779-0.153-1.096c-0.104-0.32-0.253-0.589-0.449-0.816c-0.193-0.227-0.421-0.396-0.672-0.509
		c-0.26-0.113-0.557-0.167-0.884-0.167h-13.461c-0.184,0-0.351,0.054-0.492,0.167c-0.146,0.113-0.269,0.287-0.371,0.523
		c-0.103,0.235-0.179,0.55-0.23,0.941c-0.054,0.385-0.076,0.869-0.076,1.446c0,1.112,0.103,1.895,0.307,2.356
		c0.206,0.461,0.494,0.694,0.863,0.694h7.548v9.243c-0.762,0.411-1.581,0.717-2.463,0.924c-0.884,0.205-1.779,0.307-2.682,0.307
		c-1.85,0-3.539-0.297-5.066-0.895c-1.532-0.593-2.84-1.477-3.93-2.646c-1.088-1.172-1.935-2.626-2.539-4.36
		c-0.608-1.733-0.908-3.744-0.908-6.024c0-2.072,0.296-3.966,0.892-5.682c0.595-1.713,1.447-3.182,2.556-4.405
		c1.112-1.219,2.445-2.165,4.009-2.832c1.557-0.669,3.302-1.003,5.235-1.003c1.805,0,3.389,0.186,4.76,0.556
		c1.365,0.369,2.541,0.769,3.526,1.198c0.983,0.433,1.776,0.834,2.369,1.203c0.595,0.371,1.028,0.556,1.298,0.556
		c0.183,0,0.342-0.051,0.474-0.156c0.135-0.104,0.247-0.278,0.342-0.538c0.091-0.255,0.164-0.6,0.214-1.032
		c0.052-0.43,0.079-0.945,0.079-1.541C302.094,88.242,302.031,87.463,301.908,86.942 M263.818,118.272
		c-0.055-0.402-0.127-0.728-0.229-0.975c-0.108-0.246-0.235-0.424-0.388-0.535c-0.157-0.115-0.321-0.169-0.509-0.169h-14.354
		v-11.245h12.045c0.185,0,0.355-0.052,0.508-0.155c0.156-0.101,0.284-0.274,0.386-0.507c0.104-0.239,0.183-0.55,0.232-0.941
		c0.049-0.391,0.076-0.881,0.076-1.478c0-0.575-0.027-1.063-0.076-1.463c-0.05-0.402-0.128-0.718-0.232-0.958
		c-0.102-0.237-0.229-0.408-0.386-0.521c-0.152-0.116-0.323-0.173-0.508-0.173h-12.045v-9.731h14.233
		c0.185,0,0.348-0.058,0.49-0.169c0.145-0.111,0.269-0.294,0.37-0.538c0.104-0.247,0.182-0.572,0.23-0.972
		c0.054-0.403,0.079-0.887,0.079-1.466c0-0.612-0.025-1.121-0.079-1.522c-0.049-0.401-0.127-0.729-0.23-0.986
		c-0.102-0.259-0.226-0.434-0.37-0.54c-0.143-0.101-0.306-0.152-0.49-0.152h-19.9c-0.68,0-1.247,0.198-1.709,0.598
		c-0.466,0.401-0.691,1.054-0.691,1.958v34.75c0,0.901,0.226,1.559,0.691,1.956c0.462,0.399,1.029,0.597,1.709,0.597h20.021
		c0.188,0,0.352-0.053,0.509-0.168c0.152-0.111,0.279-0.29,0.388-0.538c0.103-0.245,0.175-0.57,0.229-0.97
		c0.05-0.401,0.075-0.896,0.075-1.495C263.893,119.166,263.868,118.672,263.818,118.272 M223.448,97.187
		c-0.289,0.694-0.722,1.297-1.294,1.8c-0.574,0.5-1.294,0.892-2.154,1.169c-0.865,0.278-1.87,0.418-3.023,0.418h-4.124V89.268h3.632
		c0.927,0,1.647,0.031,2.173,0.093c0.524,0.062,0.99,0.142,1.4,0.245c1.356,0.371,2.331,1.005,2.929,1.911
		c0.594,0.906,0.895,2.014,0.895,3.326C223.88,95.708,223.736,96.484,223.448,97.187 M234.166,121.042
		c-0.099-0.358-0.305-0.927-0.614-1.709l-3.357-7.854c-0.391-0.946-0.79-1.792-1.202-2.54c-0.412-0.75-0.847-1.419-1.311-2.004
		c-0.462-0.583-0.953-1.085-1.478-1.493c-0.523-0.412-1.084-0.76-1.678-1.048c1.231-0.389,2.332-0.902,3.296-1.538
		c0.967-0.639,1.775-1.386,2.435-2.253c0.655-0.861,1.153-1.839,1.491-2.939c0.342-1.098,0.51-2.314,0.51-3.649
		c0-1.582-0.233-2.984-0.708-4.207c-0.471-1.222-1.156-2.281-2.049-3.172c-0.893-0.894-1.981-1.615-3.265-2.171
		c-1.285-0.556-2.727-0.945-4.329-1.172c-0.556-0.062-1.17-0.114-1.85-0.153c-0.676-0.041-1.536-0.062-2.586-0.062h-10.319
		c-0.678,0-1.248,0.198-1.71,0.598c-0.462,0.401-0.695,1.054-0.695,1.958v36.197c0,0.206,0.062,0.392,0.186,0.555
		c0.124,0.165,0.342,0.298,0.65,0.401c0.31,0.101,0.721,0.184,1.244,0.243c0.527,0.065,1.174,0.092,1.959,0.092
		c0.801,0,1.458-0.026,1.971-0.092c0.513-0.06,0.923-0.143,1.23-0.243c0.308-0.104,0.53-0.236,0.664-0.401
		c0.132-0.163,0.201-0.349,0.201-0.555v-15.186h2.525c0.861,0,1.621,0.135,2.28,0.4c0.654,0.268,1.235,0.661,1.74,1.187
		c0.499,0.522,0.96,1.173,1.367,1.956c0.415,0.778,0.833,1.671,1.266,2.678l3.57,8.903c0.083,0.247,0.186,0.457,0.31,0.63
		c0.123,0.175,0.334,0.319,0.632,0.433c0.299,0.113,0.706,0.191,1.218,0.233c0.514,0.038,1.203,0.057,2.062,0.057
		c1.028,0,1.839-0.019,2.436-0.057c0.594-0.042,1.05-0.116,1.355-0.217c0.31-0.103,0.503-0.232,0.586-0.387
		c0.081-0.155,0.123-0.347,0.123-0.569C234.322,121.689,234.271,121.405,234.166,121.042"/>
	<path fill="#231F20" d="M397.538,152.418c-0.37,1.291-0.943,2.364-1.701,3.233c-0.759,0.864-1.705,1.515-2.838,1.942
		c-1.137,0.433-2.532,0.646-4.189,0.646h-3.151v-20.245h3.061c1.854,0,3.357,0.249,4.498,0.747c1.142,0.499,2.076,1.19,2.806,2.082
		c0.729,0.891,1.257,1.942,1.586,3.152c0.33,1.21,0.498,2.523,0.498,3.934C398.106,149.627,397.917,151.128,397.538,152.418
		 M403.371,141.468c-0.655-1.792-1.623-3.302-2.884-4.521c-1.269-1.219-2.825-2.138-4.671-2.758
		c-1.849-0.624-4.099-0.933-6.756-0.933h-7.637c-0.506,0-0.931,0.152-1.276,0.451c-0.343,0.296-0.515,0.782-0.515,1.456v25.952
		c0,0.672,0.172,1.159,0.515,1.461c0.346,0.297,0.771,0.446,1.276,0.446h7.114c2.636,0,4.91-0.286,6.816-0.86
		c1.908-0.575,3.534-1.477,4.864-2.705c1.336-1.227,2.361-2.811,3.074-4.751c0.713-1.939,1.07-4.273,1.07-7.004
		C404.363,145.344,404.034,143.264,403.371,141.468 M367.069,143.792c-0.214,0.523-0.535,0.971-0.968,1.348
		c-0.425,0.375-0.965,0.665-1.606,0.873c-0.646,0.206-1.396,0.309-2.254,0.309h-3.085v-8.441h2.715c0.691,0,1.231,0.024,1.622,0.067
		c0.392,0.048,0.737,0.107,1.047,0.184c1.014,0.28,1.741,0.752,2.184,1.427c0.448,0.678,0.671,1.502,0.671,2.484
		C367.394,142.685,367.287,143.271,367.069,143.792 M375.076,161.609c-0.078-0.27-0.227-0.695-0.46-1.279l-2.505-5.865
		c-0.293-0.706-0.593-1.337-0.898-1.896c-0.309-0.558-0.635-1.061-0.98-1.495c-0.342-0.437-0.709-0.812-1.104-1.116
		c-0.391-0.306-0.807-0.566-1.251-0.782c0.923-0.291,1.741-0.675,2.464-1.149c0.72-0.476,1.325-1.036,1.815-1.679
		s0.865-1.377,1.116-2.195c0.251-0.825,0.378-1.733,0.378-2.731c0-1.179-0.176-2.227-0.53-3.137c-0.351-0.914-0.86-1.703-1.528-2.37
		c-0.668-0.666-1.479-1.209-2.438-1.623c-0.96-0.412-2.039-0.703-3.233-0.871c-0.412-0.046-0.873-0.087-1.38-0.118
		c-0.507-0.028-1.149-0.045-1.932-0.045h-7.707c-0.506,0-0.931,0.152-1.276,0.451c-0.348,0.296-0.516,0.782-0.516,1.456v27.034
		c0,0.152,0.045,0.288,0.134,0.411c0.093,0.124,0.254,0.225,0.484,0.302c0.229,0.077,0.541,0.139,0.931,0.181
		c0.392,0.049,0.881,0.071,1.462,0.071c0.599,0,1.09-0.022,1.472-0.071c0.382-0.042,0.691-0.104,0.923-0.181
		c0.229-0.077,0.394-0.178,0.494-0.302c0.103-0.123,0.147-0.259,0.147-0.411v-11.343h1.887c0.646,0,1.211,0.099,1.705,0.302
		c0.49,0.197,0.923,0.494,1.297,0.883c0.375,0.39,0.717,0.877,1.022,1.46c0.309,0.583,0.621,1.25,0.947,2.002l2.669,6.648
		c0.058,0.183,0.136,0.34,0.227,0.471c0.095,0.133,0.247,0.235,0.475,0.322c0.218,0.084,0.521,0.144,0.905,0.173
		c0.387,0.032,0.898,0.047,1.545,0.047c0.767,0,1.371-0.015,1.815-0.047c0.446-0.029,0.78-0.086,1.014-0.158
		c0.228-0.079,0.375-0.175,0.433-0.287c0.062-0.119,0.095-0.259,0.095-0.428C375.191,162.089,375.151,161.878,375.076,161.609
		 M339.487,151.59h-8.439l4.21-12.654h0.02L339.487,151.59z M339.742,134.387c-0.092-0.295-0.203-0.523-0.335-0.696
		c-0.128-0.167-0.345-0.293-0.645-0.377c-0.298-0.087-0.716-0.136-1.253-0.16c-0.535-0.025-1.256-0.038-2.162-0.038
		c-0.783,0-1.412,0.013-1.885,0.038c-0.476,0.024-0.851,0.073-1.118,0.16c-0.268,0.084-0.463,0.206-0.587,0.371
		c-0.123,0.162-0.229,0.368-0.32,0.63l-9.18,26.41c-0.182,0.536-0.3,0.964-0.342,1.288c-0.05,0.319,0.004,0.569,0.16,0.744
		c0.15,0.177,0.429,0.292,0.823,0.334c0.402,0.049,0.952,0.071,1.66,0.071c0.659,0,1.192-0.015,1.599-0.047
		c0.404-0.029,0.721-0.089,0.939-0.173c0.226-0.087,0.385-0.198,0.486-0.342c0.099-0.148,0.18-0.327,0.243-0.544l1.884-5.818h11.18
		l2.003,5.979c0.062,0.202,0.137,0.363,0.229,0.485c0.092,0.123,0.253,0.22,0.482,0.285c0.229,0.068,0.564,0.115,1.003,0.141
		c0.437,0.022,1.045,0.034,1.829,0.034c0.749,0,1.339-0.02,1.768-0.06c0.432-0.036,0.73-0.135,0.9-0.297
		c0.169-0.161,0.227-0.405,0.182-0.727c-0.043-0.321-0.161-0.758-0.342-1.31L339.742,134.387z M322.236,135.581
		c0.136-0.568,0.215-1.02,0.241-1.352c0.021-0.325-0.052-0.576-0.22-0.741c-0.17-0.171-0.442-0.273-0.816-0.311
		c-0.375-0.044-0.902-0.062-1.578-0.062c-0.721,0-1.277,0.019-1.676,0.062c-0.404,0.037-0.709,0.104-0.923,0.203
		c-0.214,0.1-0.362,0.239-0.437,0.416c-0.076,0.176-0.139,0.384-0.186,0.633l-5.219,22.727h-0.05l-5.612-22.636
		c-0.06-0.305-0.146-0.552-0.251-0.735c-0.109-0.186-0.281-0.326-0.517-0.426c-0.239-0.1-0.577-0.165-1.012-0.194
		c-0.442-0.033-1.027-0.05-1.764-0.05c-0.687,0-1.239,0.019-1.653,0.062c-0.418,0.037-0.741,0.104-0.979,0.203
		c-0.237,0.1-0.404,0.245-0.505,0.427c-0.1,0.184-0.184,0.422-0.241,0.713l-5.433,22.636h-0.019l-5.225-22.797
		c-0.046-0.293-0.108-0.513-0.186-0.675c-0.075-0.165-0.219-0.287-0.438-0.371c-0.214-0.087-0.531-0.136-0.951-0.16
		c-0.422-0.025-0.995-0.038-1.714-0.038c-0.782,0-1.393,0.019-1.83,0.062c-0.439,0.037-0.753,0.14-0.944,0.311
		c-0.189,0.165-0.28,0.405-0.262,0.722c0.013,0.314,0.087,0.749,0.228,1.301l6.767,25.971c0.091,0.371,0.203,0.664,0.342,0.888
		c0.141,0.223,0.363,0.388,0.668,0.504c0.307,0.114,0.725,0.193,1.255,0.229c0.528,0.04,1.236,0.06,2.127,0.06
		c0.843,0,1.52-0.02,2.035-0.06c0.514-0.036,0.923-0.115,1.219-0.24c0.301-0.122,0.52-0.293,0.659-0.518
		c0.137-0.22,0.243-0.511,0.321-0.863l4.506-18.863h0.05l4.762,18.863c0.074,0.371,0.182,0.664,0.32,0.888
		c0.138,0.223,0.36,0.388,0.669,0.504c0.305,0.114,0.723,0.193,1.254,0.229c0.528,0.04,1.229,0.06,2.103,0.06
		c0.781,0,1.428-0.02,1.932-0.06c0.505-0.036,0.923-0.115,1.245-0.229c0.32-0.116,0.563-0.281,0.722-0.504
		c0.163-0.224,0.286-0.517,0.381-0.888L322.236,135.581z M271.855,143.792c-0.214,0.523-0.539,0.971-0.968,1.348
		c-0.429,0.375-0.966,0.665-1.61,0.873c-0.643,0.206-1.396,0.309-2.253,0.309h-3.083v-8.441h2.712c0.691,0,1.231,0.024,1.622,0.067
		c0.392,0.048,0.742,0.107,1.047,0.184c1.014,0.28,1.74,0.752,2.184,1.427c0.448,0.678,0.669,1.502,0.669,2.484
		C272.174,142.685,272.07,143.271,271.855,143.792 M279.861,161.609c-0.08-0.27-0.232-0.695-0.464-1.279l-2.504-5.865
		c-0.293-0.706-0.594-1.337-0.897-1.896c-0.308-0.558-0.636-1.061-0.979-1.495c-0.343-0.437-0.715-0.812-1.104-1.116
		c-0.39-0.306-0.811-0.566-1.255-0.782c0.92-0.291,1.742-0.675,2.461-1.149c0.721-0.476,1.328-1.036,1.815-1.679
		c0.493-0.643,0.864-1.377,1.119-2.195c0.251-0.825,0.379-1.733,0.379-2.731c0-1.179-0.175-2.227-0.531-3.137
		c-0.35-0.914-0.858-1.703-1.528-2.37c-0.667-0.666-1.479-1.209-2.438-1.623c-0.96-0.412-2.035-0.703-3.229-0.871
		c-0.419-0.046-0.879-0.087-1.385-0.118c-0.505-0.028-1.151-0.045-1.93-0.045h-7.709c-0.507,0-0.931,0.152-1.275,0.451
		c-0.343,0.296-0.52,0.782-0.52,1.456v27.034c0,0.152,0.048,0.288,0.139,0.411c0.095,0.124,0.252,0.225,0.483,0.302
		s0.541,0.139,0.934,0.181c0.392,0.049,0.877,0.071,1.458,0.071c0.599,0,1.09-0.022,1.476-0.071
		c0.383-0.042,0.688-0.104,0.919-0.181c0.229-0.077,0.395-0.178,0.493-0.302c0.1-0.123,0.151-0.259,0.151-0.411v-11.343h1.884
		c0.643,0,1.213,0.099,1.705,0.302c0.486,0.197,0.923,0.494,1.298,0.883c0.374,0.39,0.716,0.877,1.025,1.46
		c0.305,0.583,0.622,1.25,0.943,2.002l2.665,6.648c0.062,0.183,0.143,0.34,0.23,0.471c0.091,0.133,0.251,0.235,0.475,0.322
		c0.222,0.084,0.522,0.144,0.91,0.173c0.381,0.032,0.894,0.047,1.538,0.047c0.767,0,1.374-0.015,1.818-0.047
		c0.449-0.029,0.783-0.086,1.01-0.158c0.232-0.079,0.378-0.175,0.44-0.287c0.061-0.119,0.091-0.259,0.091-0.428
		C279.974,162.089,279.933,161.878,279.861,161.609 M246.077,152.153c-0.252,1.266-0.688,2.374-1.301,3.325
		c-0.613,0.953-1.419,1.701-2.414,2.255c-0.997,0.553-2.24,0.828-3.728,0.828s-2.723-0.239-3.703-0.726
		c-0.982-0.485-1.768-1.186-2.348-2.104c-0.585-0.921-0.998-2.026-1.242-3.324s-0.368-2.756-0.368-4.382
		c0-1.397,0.128-2.719,0.38-3.969c0.25-1.251,0.687-2.342,1.301-3.279c0.611-0.935,1.417-1.683,2.414-2.241
		c0.999-0.562,2.24-0.842,3.727-0.842c1.476,0,2.698,0.247,3.683,0.749c0.981,0.496,1.768,1.207,2.356,2.115
		c0.593,0.911,1.01,2.012,1.257,3.294c0.243,1.279,0.366,2.702,0.366,4.265C246.457,149.543,246.33,150.888,246.077,152.153
		 M251.922,141.09c-0.593-1.896-1.469-3.464-2.626-4.706c-1.156-1.241-2.596-2.16-4.322-2.758c-1.727-0.601-3.716-0.899-5.972-0.899
		c-2.361,0-4.438,0.362-6.222,1.081c-1.788,0.721-3.286,1.759-4.5,3.104c-1.208,1.351-2.123,2.988-2.737,4.915
		c-0.614,1.923-0.918,4.089-0.918,6.495c0,2.626,0.285,4.894,0.86,6.812c0.577,1.92,1.438,3.499,2.591,4.741
		c1.149,1.241,2.588,2.167,4.312,2.771s3.744,0.906,6.063,0.906c2.345,0,4.412-0.354,6.199-1.068
		c1.784-0.713,3.283-1.746,4.499-3.105c1.208-1.356,2.121-3.007,2.737-4.959c0.611-1.946,0.918-4.156,0.918-6.621
		C252.806,145.217,252.511,142.983,251.922,141.09 M221.394,134.567c-0.039-0.321-0.102-0.578-0.188-0.771
		c-0.082-0.195-0.18-0.333-0.284-0.416c-0.112-0.082-0.233-0.125-0.371-0.125h-14.009c-0.507,0-0.931,0.152-1.275,0.451
		c-0.346,0.296-0.521,0.782-0.521,1.456v26.986c0,0.171,0.053,0.313,0.15,0.437c0.101,0.124,0.266,0.229,0.497,0.313
		c0.229,0.084,0.539,0.149,0.928,0.191c0.394,0.049,0.88,0.071,1.465,0.071c0.597,0,1.09-0.022,1.47-0.071
		c0.384-0.042,0.694-0.107,0.935-0.191c0.235-0.084,0.4-0.189,0.494-0.313c0.097-0.123,0.137-0.266,0.137-0.437v-11.088h9.133
		c0.14,0,0.259-0.042,0.371-0.127c0.102-0.084,0.2-0.226,0.287-0.424c0.08-0.201,0.145-0.451,0.182-0.761
		c0.037-0.306,0.06-0.689,0.06-1.15c0-0.46-0.022-0.843-0.06-1.151s-0.102-0.55-0.182-0.733c-0.087-0.187-0.186-0.314-0.287-0.394
		c-0.112-0.076-0.231-0.115-0.371-0.115h-9.133V138.2h9.729c0.138,0,0.259-0.042,0.371-0.135c0.104-0.091,0.202-0.233,0.284-0.415
		c0.086-0.185,0.148-0.436,0.188-0.747c0.039-0.315,0.056-0.706,0.056-1.164C221.45,135.28,221.433,134.89,221.394,134.567"/>
</g>
<path d="M268.325,20.445c-1.446-4.634-3.584-8.465-6.413-11.502c-2.83-3.039-6.355-5.285-10.575-6.751
	C247.12,0.729,242.252,0,236.74,0c-0.493,0-0.949,0.043-1.432,0.054c-5.174,0.14-9.787,0.977-13.782,2.587
	c-4.369,1.765-8.035,4.296-10.997,7.595c-2.963,3.299-5.193,7.303-6.693,12.01c-1.501,4.704-2.251,10.001-2.251,15.889
	c0,6.411,0.704,11.962,2.112,16.65c1.407,4.689,3.516,8.551,6.326,11.585c2.813,3.04,6.326,5.299,10.547,6.782
	c4.198,1.471,9.109,2.212,14.738,2.218c0.031,0,0.055,0.002,0.084,0.002c5.736,0,10.789-0.873,15.159-2.616
	c4.366-1.744,8.034-4.273,10.994-7.593c2.962-3.32,5.194-7.359,6.693-12.121c1.5-4.762,2.253-10.164,2.253-16.2
	C270.492,30.542,269.767,25.077,268.325,20.445z M254.279,47.197c-0.651,3.246-1.764,6.092-3.341,8.535
	c-1.578,2.443-3.645,4.374-6.206,5.792c-2.524,1.394-5.669,2.098-9.424,2.121c-0.052,0-0.096,0.006-0.15,0.006
	c-3.819,0-6.993-0.622-9.511-1.859c-2.521-1.242-4.531-3.046-6.029-5.406c-1.495-2.367-2.56-5.211-3.192-8.542
	c-0.627-3.33-0.945-7.083-0.945-11.257c0-3.583,0.328-6.984,0.979-10.192c0.649-3.211,1.759-6.019,3.337-8.422
	c1.576-2.401,3.646-4.325,6.205-5.762c2.498-1.401,5.606-2.11,9.308-2.143c0.094-0.002,0.174-0.014,0.266-0.014
	c3.785,0,6.933,0.641,9.453,1.922c2.525,1.281,4.543,3.091,6.06,5.435c1.516,2.344,2.591,5.165,3.221,8.45
	c0.626,3.289,0.944,6.945,0.944,10.961C255.251,40.487,254.925,43.942,254.279,47.197z"/>
<path d="M403.379,65.556c-0.091-0.731-0.231-1.322-0.421-1.771c-0.186-0.449-0.421-0.778-0.705-0.987
	c-0.279-0.206-0.585-0.309-0.927-0.309h-26.209V41.961h21.991c0.338,0,0.647-0.095,0.932-0.284c0.275-0.185,0.511-0.494,0.7-0.929
	c0.189-0.431,0.329-1.001,0.424-1.714c0.091-0.712,0.141-1.612,0.141-2.702c0-1.049-0.05-1.938-0.141-2.672
	c-0.095-0.729-0.234-1.309-0.424-1.742s-0.425-0.75-0.7-0.958c-0.284-0.202-0.594-0.309-0.932-0.309h-21.991V12.878h25.987
	c0.338,0,0.639-0.101,0.901-0.309c0.261-0.206,0.487-0.536,0.672-0.984c0.186-0.449,0.33-1.038,0.42-1.771
	c0.095-0.731,0.145-1.623,0.145-2.671c0-1.125-0.05-2.053-0.145-2.784c-0.09-0.733-0.234-1.333-0.42-1.803
	c-0.185-0.469-0.411-0.794-0.672-0.982c-0.263-0.188-0.563-0.28-0.901-0.28h-36.34c-1.234,0-2.277,0.364-3.121,1.095
	c-0.846,0.732-1.265,1.922-1.265,3.572v63.449c0,1.65,0.419,2.84,1.265,3.569c0.844,0.733,1.887,1.098,3.121,1.098h36.562
	c0.342,0,0.647-0.104,0.927-0.309c0.284-0.207,0.52-0.534,0.705-0.985c0.189-0.449,0.33-1.038,0.421-1.771
	c0.099-0.731,0.144-1.637,0.144-2.729C403.523,67.195,403.478,66.287,403.379,65.556z"/>
<path d="M341.446,1.687c-0.468-0.227-1.135-0.383-1.996-0.48c-0.862-0.093-1.931-0.138-3.209-0.138
	c-1.351,0-2.454,0.045-3.315,0.138c-0.865,0.097-1.557,0.253-2.08,0.48c-0.527,0.225-0.902,0.486-1.128,0.787
	c-0.224,0.3-0.337,0.638-0.337,1.011v34.143c0,2.587,0.027,5.308,0.084,8.156c0.054,2.851,0.141,5.588,0.253,8.214h-0.054
	c-0.676-1.501-1.368-3-2.08-4.5c-0.717-1.5-1.446-3.027-2.196-4.586c-0.749-1.553-1.528-3.11-2.333-4.669
	c-0.808-1.555-1.625-3.141-2.449-4.751L306.431,8.885c-0.712-1.46-1.406-2.689-2.081-3.684c-0.674-0.991-1.396-1.769-2.166-2.336
	c-0.77-0.558-1.642-0.963-2.615-1.207c-0.972-0.243-2.175-0.364-3.6-0.364h-7.93c-1.5,0-2.769,0.438-3.798,1.322
	c-1.033,0.879-1.549,2.202-1.549,3.962v65.418c0,0.375,0.095,0.714,0.284,1.014c0.188,0.3,0.522,0.551,1.011,0.758
	c0.489,0.206,1.163,0.366,2.024,0.478c0.862,0.113,1.951,0.169,3.268,0.169c1.346,0,2.45-0.056,3.315-0.169
	c0.861-0.112,1.546-0.272,2.051-0.478c0.509-0.207,0.862-0.458,1.072-0.758c0.205-0.299,0.309-0.639,0.309-1.014V33.917
	c0-2.848-0.039-5.619-0.112-8.298c-0.076-2.68-0.188-5.372-0.338-8.071h0.112c0.859,2.214,1.837,4.492,2.924,6.833
	c1.087,2.345,2.156,4.531,3.205,6.553l18.112,34.03c0.938,1.874,1.781,3.402,2.532,4.584c0.749,1.18,1.529,2.119,2.334,2.812
	c0.807,0.694,1.687,1.172,2.643,1.433c0.955,0.266,2.09,0.396,3.406,0.396h6.298c0.712,0,1.416-0.103,2.109-0.311
	c0.692-0.208,1.293-0.531,1.8-0.982c0.507-0.451,0.907-1.013,1.209-1.687c0.298-0.677,0.451-1.443,0.451-2.304V3.485
	c0-0.373-0.095-0.711-0.282-1.011S341.916,1.912,341.446,1.687z"/>
<g>
</g>
<g>
</g>
<g>
</g>
<g>
</g>
<g>
</g>
<g>
</g>
</svg>
